<svg xmlns="http://www.w3.org/2000/svg" width="2742" height="1696" viewBox="0 0 2742 1696" version="1.1"><path d="M 1635.834 525.498 C 1616.911 529.092, 1599.496 538.482, 1584.939 552.940 C 1566.565 571.188, 1556.659 594.170, 1556.677 618.500 C 1556.687 631.302, 1558.487 639.885, 1563.350 650.319 C 1571.763 668.367, 1585.742 680.746, 1605.500 687.647 C 1612.949 690.248, 1614.602 690.443, 1629.500 690.470 C 1648.056 690.505, 1652.607 689.521, 1668.500 682.036 C 1694.661 669.718, 1713.204 648.204, 1721.608 620.421 C 1723.953 612.669, 1724.320 609.666, 1724.403 597.500 C 1724.487 585.428, 1724.177 582.471, 1722.153 576.025 C 1714.271 550.925, 1697.154 533.863, 1672.984 527.017 C 1663.113 524.221, 1646.199 523.529, 1635.834 525.498 M 2326.711 594.250 C 2326.433 595.487, 2321.547 625.861, 2315.853 661.746 L 2305.500 726.993 2268.269 726.996 L 2231.038 727 2230.543 729.250 C 2230.270 730.487, 2226.634 753.100, 2222.463 779.500 C 2218.291 805.900, 2214.650 828.288, 2214.372 829.250 C 2213.896 830.895, 2216.129 831, 2251.452 831 L 2289.038 831 2288.528 833.250 C 2288.248 834.487, 2280.591 882.300, 2271.514 939.500 C 2262.436 996.700, 2254.778 1044.872, 2254.497 1046.549 C 2254.215 1048.226, 2253.543 1055.388, 2253.003 1062.464 C 2250.821 1091.044, 2256.001 1116.022, 2267.884 1134.224 C 2282.918 1157.254, 2312.499 1168.949, 2363.425 1171.996 C 2377.752 1172.853, 2385.668 1172.689, 2412.504 1170.979 C 2430.102 1169.857, 2455.454 1168.658, 2468.842 1168.313 C 2485.025 1167.896, 2493.311 1167.320, 2493.563 1166.593 C 2494.352 1164.328, 2513.862 1040.528, 2513.489 1040.156 C 2513.275 1039.941, 2503.825 1040.332, 2492.490 1041.025 C 2469.172 1042.449, 2460.036 1041.983, 2450.606 1038.887 C 2441.911 1036.033, 2436.734 1031.497, 2433.872 1024.226 C 2431.958 1019.362, 2431.611 1016.543, 2431.565 1005.500 C 2431.515 993.512, 2432.521 986.212, 2444.476 911.760 L 2457.440 831.020 2502.428 830.760 L 2547.416 830.500 2555.154 782 C 2559.410 755.325, 2563.162 732.038, 2563.491 730.250 L 2564.091 727 2518.966 727 L 2473.841 727 2474.421 724.250 C 2475.690 718.228, 2495 596.149, 2495 594.145 L 2495 592 2411.108 592 L 2327.217 592 2326.711 594.250 M 250 716.699 C 197.116 720.812, 148.429 739.926, 107 772.840 C 93.864 783.275, 72.447 804.430, 62.291 817 C 23.751 864.700, 2.872 921.667, 0.350 986 C -1.827 1041.527, 15.204 1087.892, 50.130 1121.523 C 65.818 1136.630, 79.352 1145.972, 99.500 1155.605 C 127.279 1168.886, 157.071 1175.792, 196.135 1178.007 C 243.224 1180.676, 289.744 1173.265, 331.814 1156.390 C 380.163 1136.996, 417.687 1108.200, 444.836 1069.656 C 449.389 1063.191, 463 1040.684, 463 1039.620 C 463 1039.279, 427.665 1039, 384.479 1039 L 305.957 1039 300.375 1044.493 C 284.980 1059.645, 261.403 1068.657, 234.500 1069.673 C 217.232 1070.326, 204.674 1068.113, 193.001 1062.363 C 171.670 1051.855, 159.049 1027.305, 159.013 996.250 L 159 985 319.933 985 C 472.328 985, 480.894 984.907, 481.408 983.250 C 482.901 978.440, 486.238 945.327, 486.874 929 C 488.859 878.116, 482.171 839.101, 465.877 806.503 C 438.835 752.406, 387.178 723.569, 305.605 717.033 C 293.702 716.079, 260.532 715.880, 250 716.699 M 738 717.094 C 685.857 721.588, 631.379 738.662, 597.961 760.985 C 586.493 768.645, 569.301 785.524, 562.288 796.008 C 545.378 821.288, 535.333 857.425, 537.552 885 C 540.364 919.937, 558.141 944.483, 595 964.319 C 619.379 977.440, 642.521 984.227, 701.402 995.525 C 746.754 1004.228, 768.529 1010.725, 775.393 1017.602 C 781.875 1024.095, 783.801 1035.194, 780.317 1045.980 C 778.354 1052.059, 771.764 1059.882, 765.528 1063.536 C 754.404 1070.055, 737.103 1074.007, 719.792 1073.983 C 698.483 1073.953, 685.507 1069.680, 675.134 1059.278 C 666.740 1050.861, 663.678 1043.959, 663.168 1032.306 L 662.761 1023 582.512 1023 L 502.262 1023 501.625 1026.750 C 501.275 1028.813, 500.700 1035.934, 500.349 1042.575 C 498.143 1084.211, 514.229 1117.109, 547.638 1139.290 C 590.900 1168.014, 649.877 1181.415, 718.088 1178.020 C 768.049 1175.534, 807.220 1167.067, 845.877 1150.395 C 896.649 1128.499, 925.827 1097.064, 940.455 1048.500 C 946.108 1029.730, 947.501 1019.833, 947.491 998.500 C 947.483 981.791, 947.211 978.560, 945.233 971.709 C 939.147 950.629, 924.413 932.383, 901.281 917.280 C 879.588 903.117, 853.648 895.349, 775 879.463 C 723.105 868.980, 715.357 866.451, 706.837 857.208 L 702.751 852.775 703.213 845.583 C 703.715 837.757, 706.765 829.764, 711.289 824.417 C 717.692 816.848, 734.325 811.224, 753.048 810.296 C 774.136 809.252, 784.088 812.443, 795.539 823.924 C 805.206 833.615, 808 839.152, 808 848.614 L 808 856 884.481 856 L 960.962 856 961.731 853.250 C 962.154 851.737, 962.477 841.500, 962.449 830.500 C 962.389 807.237, 961.102 800.722, 953.561 785.500 C 944.395 766.999, 931.731 755.448, 907.500 743.488 C 877.569 728.714, 844.063 720.312, 802.050 717.046 C 786.709 715.853, 752.096 715.879, 738 717.094 M 1293.500 717.056 C 1281.058 718.324, 1264.629 721.551, 1255.571 724.508 C 1236.866 730.614, 1213.176 746.266, 1192.291 766.316 C 1187.731 770.694, 1184.003 773.876, 1184.006 773.388 C 1184.009 772.900, 1185.584 762.664, 1187.506 750.643 C 1189.428 738.621, 1191 728.381, 1191 727.887 C 1191 727.361, 1157.340 727.094, 1109.753 727.244 L 1028.506 727.500 972.794 1074 C 942.152 1264.575, 917.063 1421.287, 917.041 1422.250 C 917.002 1423.903, 921.650 1424, 1000.981 1424 L 1084.962 1424 1085.505 1421.750 C 1085.804 1420.513, 1097.062 1353.575, 1110.522 1273 C 1123.983 1192.425, 1135.264 1125.235, 1135.591 1123.688 C 1136.162 1120.991, 1136.394 1121.193, 1141.272 1128.624 C 1151.333 1143.948, 1165.450 1156.694, 1181 1164.492 C 1203.569 1175.809, 1229.658 1180.125, 1262.718 1178.010 C 1342.147 1172.928, 1392.614 1138.968, 1433.694 1062.960 C 1454.947 1023.635, 1469.681 973.300, 1474.056 925.068 C 1475.556 908.538, 1474.753 874.575, 1472.530 860.500 C 1467.520 828.781, 1455.369 795.804, 1440.405 773.314 C 1433.719 763.265, 1420.277 748.879, 1411.118 741.969 C 1397.397 731.616, 1377.344 723.007, 1357.443 718.925 C 1345.917 716.561, 1308.965 715.481, 1293.500 717.056 M 2036 724.623 C 1984.862 730.685, 1951.191 746.222, 1915.421 780.262 L 1906.372 788.873 1911.154 760.187 C 1913.784 744.409, 1915.950 730.487, 1915.968 729.250 L 1916 727 1835.579 727 L 1755.159 727 1754.585 729.750 C 1753.624 734.356, 1683 1164.590, 1683 1165.837 C 1683 1166.712, 1703.695 1167, 1766.481 1167 L 1849.962 1167 1850.455 1164.750 C 1850.726 1163.513, 1859.318 1111.425, 1869.549 1049 C 1879.779 986.575, 1888.623 933.570, 1889.203 931.212 C 1889.782 928.853, 1890.036 926.703, 1889.767 926.433 C 1888.980 925.647, 1875.250 930.854, 1865.778 935.530 C 1855.614 940.549, 1842.963 948.633, 1834.617 955.441 C 1827.632 961.138, 1827.813 960.770, 1838.179 948.202 C 1885.214 891.169, 1926.649 860.990, 1961.500 858.382 C 1985.876 856.558, 2003.007 864.750, 2008.008 880.623 C 2010.753 889.335, 2011.728 908.606, 2010.128 922.544 C 2009.500 928.020, 2000.365 985.038, 1989.828 1049.252 C 1979.292 1113.466, 1970.858 1166.187, 1971.086 1166.410 C 1971.705 1167.017, 2136.792 1167.542, 2137.394 1166.939 C 2138.689 1165.644, 2189.078 857.444, 2189.644 847.355 C 2190.852 825.855, 2186.705 804.152, 2178.017 786.500 C 2162.677 755.334, 2135.328 735.601, 2095.500 726.962 C 2087.201 725.162, 2081.587 724.743, 2062.500 724.500 C 2049.850 724.339, 2037.925 724.394, 2036 724.623 M 1546.609 730.823 C 1546.141 731.580, 1479 1164.738, 1479 1167 C 1479 1167.659, 1507.453 1168, 1562.421 1168 L 1645.841 1168 1646.393 1165.250 C 1647.664 1158.914, 1713 734.039, 1713 732.111 L 1713 730 1630.059 730 C 1584.441 730, 1546.889 730.370, 1546.609 730.823 M 257.928 825.003 C 218.009 829.593, 191.279 851.143, 176.368 890.756 L 174.013 897.012 253.756 896.756 L 333.500 896.500 333.784 886.304 C 334.306 867.591, 329.108 854.060, 316.541 841.417 C 308.896 833.726, 300.956 829.181, 290.500 826.511 C 282.917 824.574, 267.761 823.872, 257.928 825.003 M 1227.552 840.652 C 1203.858 845.730, 1188.372 859.365, 1174.167 887.656 C 1159.057 917.750, 1149.903 969.355, 1153.958 1001.576 C 1158.878 1040.661, 1174.760 1055.378, 1212 1055.361 C 1228.011 1055.354, 1235.515 1053.758, 1248 1047.703 C 1274.543 1034.830, 1295.548 995.485, 1303.085 944.522 C 1306.881 918.849, 1306.625 895.602, 1302.353 878.201 C 1297.098 856.802, 1285.180 844.745, 1265.108 840.523 C 1255.961 838.599, 1236.826 838.665, 1227.552 840.652 M 1313.524 1233.250 C 1312.984 1234.881, 1308 1260.065, 1308 1261.160 C 1308 1261.622, 1316.991 1262, 1327.981 1262 C 1347.875 1262, 1347.964 1261.990, 1348.501 1259.750 C 1350.241 1252.496, 1353.594 1232.927, 1353.170 1232.503 C 1352.893 1232.226, 1343.953 1232, 1333.302 1232 C 1318.697 1232, 1313.836 1232.307, 1313.524 1233.250 M 1638.291 1233.250 C 1637.766 1233.938, 1636.815 1237.425, 1636.178 1241 C 1635.540 1244.575, 1634.392 1250.763, 1633.626 1254.750 L 1632.232 1262 1652.432 1262 L 1672.632 1262 1675.283 1247.852 C 1676.741 1240.070, 1677.698 1233.320, 1677.408 1232.852 C 1676.519 1231.412, 1639.405 1231.790, 1638.291 1233.250 M 1966.388 1233.181 C 1965.987 1233.830, 1964.462 1240.580, 1962.999 1248.181 L 1960.340 1262 1980.543 1262 L 2000.747 1262 2003.404 1247.954 C 2004.865 1240.228, 2005.795 1233.478, 2005.471 1232.954 C 2004.568 1231.492, 1967.298 1231.708, 1966.388 1233.181 M 1241.746 1257.638 C 1239.167 1271.189, 1236.890 1282.444, 1236.685 1282.649 C 1236.480 1282.854, 1234.385 1282.342, 1232.030 1281.511 C 1226.458 1279.545, 1212.150 1279.550, 1204.584 1281.520 C 1193.532 1284.399, 1186.158 1288.847, 1176.434 1298.500 C 1168.480 1306.397, 1166.743 1308.787, 1162.264 1318 C 1148.405 1346.503, 1142.447 1389.612, 1149.997 1406.745 C 1152.892 1413.311, 1160.079 1420.301, 1167.390 1423.658 C 1172.840 1426.161, 1174.634 1426.466, 1184 1426.482 C 1193.413 1426.498, 1195.071 1426.219, 1200.017 1423.790 C 1203.051 1422.300, 1208.617 1418.087, 1212.386 1414.428 L 1219.238 1407.775 1228.965 1417.465 L 1238.692 1427.155 1250.096 1422.429 C 1256.368 1419.830, 1261.821 1417.426, 1262.214 1417.087 C 1262.607 1416.749, 1261.595 1413.827, 1259.964 1410.595 C 1256.453 1403.633, 1256.122 1397.018, 1258.534 1382 C 1259.785 1374.211, 1285.082 1240.607, 1286.415 1234.750 C 1286.784 1233.128, 1285.336 1233, 1266.624 1233 L 1246.435 1233 1241.746 1257.638 M 1703.080 1238.250 C 1700.307 1251.957, 1668 1421.237, 1668 1422.060 C 1668 1422.577, 1671.518 1423, 1675.818 1423 L 1683.637 1423 1694.048 1415.655 L 1704.460 1408.311 1706.213 1412.228 C 1710.414 1421.610, 1714.144 1424.490, 1724.188 1426.108 C 1731.459 1427.279, 1742.323 1425.973, 1750.372 1422.962 C 1771.220 1415.162, 1786.737 1390.156, 1794.407 1352 C 1800.562 1321.377, 1798.229 1303.177, 1786.667 1291.615 C 1778.183 1283.131, 1767.185 1279.413, 1752.872 1280.192 C 1747.330 1280.493, 1742.894 1281.364, 1739.750 1282.767 C 1735.455 1284.685, 1735 1284.725, 1735.003 1283.194 C 1735.005 1282.262, 1737.026 1271.150, 1739.495 1258.500 C 1741.963 1245.850, 1743.987 1234.938, 1743.991 1234.250 C 1743.998 1233.292, 1739.352 1233, 1724.071 1233 L 1704.142 1233 1703.080 1238.250 M 2095.726 1257.637 C 2093.160 1271.187, 2090.892 1282.442, 2090.686 1282.647 C 2090.480 1282.853, 2088.385 1282.342, 2086.030 1281.511 C 2080.458 1279.545, 2066.150 1279.550, 2058.584 1281.520 C 2047.485 1284.411, 2040.161 1288.839, 2030.500 1298.500 C 2023.736 1305.264, 2020.445 1309.515, 2017.254 1315.612 C 2003.087 1342.674, 1996.306 1389.293, 2003.997 1406.745 C 2006.892 1413.311, 2014.079 1420.301, 2021.390 1423.658 C 2026.840 1426.161, 2028.634 1426.466, 2038 1426.482 C 2047.425 1426.498, 2049.068 1426.221, 2054.043 1423.778 C 2057.112 1422.271, 2062.613 1418.072, 2066.369 1414.372 L 2073.152 1407.688 2082.925 1417.425 L 2092.699 1427.162 2104.099 1422.401 C 2110.370 1419.782, 2115.893 1417.306, 2116.373 1416.897 C 2116.853 1416.488, 2116.359 1414.882, 2115.276 1413.327 C 2110.244 1406.106, 2109.836 1397.982, 2113.444 1376.829 C 2115.473 1364.932, 2139.114 1240.370, 2140.409 1234.750 C 2140.783 1233.128, 2139.337 1233, 2120.602 1233 L 2100.392 1233 2095.726 1257.637 M 1495.859 1251.353 L 1475.219 1256.317 1472.973 1268.408 C 1471.738 1275.059, 1470.522 1281.045, 1470.272 1281.711 C 1469.979 1282.487, 1466.900 1283.026, 1461.692 1283.211 L 1453.568 1283.500 1451.347 1295 C 1448.005 1312.305, 1447.539 1311, 1457.067 1311 C 1464.282 1311, 1465.080 1311.185, 1464.615 1312.750 C 1463.998 1314.828, 1456.933 1351.675, 1454.037 1367.925 C 1451.824 1380.339, 1451.405 1394.169, 1453.051 1400.500 C 1454.239 1405.071, 1467.075 1431, 1468.150 1431 C 1468.539 1431, 1474.979 1428.210, 1482.459 1424.800 C 1493.214 1419.898, 1495.916 1418.276, 1495.368 1417.050 C 1492.583 1410.822, 1490.048 1401.772, 1490.032 1398 C 1490.003 1391.595, 1492.059 1378.937, 1498.956 1343.052 C 1502.280 1325.756, 1505 1311.468, 1505 1311.302 C 1505 1311.136, 1509.463 1311, 1514.917 1311 L 1524.834 1311 1525.835 1306.250 C 1526.386 1303.638, 1527.151 1299.351, 1527.536 1296.725 C 1528.387 1290.911, 1530.105 1291.659, 1532.362 1298.827 C 1536.117 1310.752, 1535.951 1312.255, 1523.984 1374.640 C 1519.043 1400.397, 1515 1421.815, 1515 1422.236 C 1515 1422.656, 1523.991 1423, 1534.981 1423 C 1554.886 1423, 1554.964 1422.991, 1555.467 1420.750 C 1555.744 1419.513, 1560.034 1397.125, 1565 1371 C 1569.966 1344.875, 1574.231 1322.585, 1574.479 1321.466 C 1574.744 1320.270, 1576.900 1318.445, 1579.715 1317.034 C 1583.625 1315.073, 1586.460 1314.557, 1595.225 1314.208 L 1605.951 1313.780 1606.594 1310.140 C 1606.948 1308.138, 1608.309 1301.151, 1609.619 1294.612 C 1612.800 1278.732, 1612.950 1279.631, 1607.250 1280.484 C 1594.333 1282.416, 1580.389 1289.158, 1573.740 1296.687 C 1572.011 1298.645, 1571.813 1298.511, 1562.582 1289.144 L 1553.184 1279.608 1541.842 1284.821 C 1535.604 1287.688, 1530.142 1290.027, 1529.705 1290.017 C 1529.267 1290.008, 1529.205 1288.425, 1529.566 1286.500 L 1530.223 1283 1520.611 1283 C 1513.292 1283, 1511 1282.684, 1511 1281.673 C 1511 1280.944, 1512.373 1273.242, 1514.051 1264.559 C 1515.730 1255.876, 1516.967 1248.236, 1516.801 1247.580 C 1516.590 1246.744, 1510.347 1247.869, 1495.859 1251.353 M 1394 1282.055 C 1369.021 1288.531, 1355.051 1305.197, 1355.012 1328.568 C 1354.988 1342.799, 1360.069 1351.645, 1373.500 1360.756 C 1377.900 1363.741, 1383.449 1368.054, 1385.830 1370.341 C 1393.581 1377.785, 1394.712 1382.403, 1390.531 1389.537 C 1384.298 1400.172, 1364.716 1401.996, 1348.597 1393.442 L 1342.139 1390.015 1341.078 1395.257 C 1340.495 1398.141, 1339.179 1404.923, 1338.154 1410.330 L 1336.290 1420.160 1338.895 1421.154 C 1353.218 1426.622, 1376.799 1427.954, 1391.314 1424.116 C 1412.092 1418.621, 1427.121 1404.317, 1431.460 1385.907 C 1433.503 1377.240, 1433.380 1371.417, 1430.995 1363.855 C 1428.267 1355.204, 1423.790 1349.517, 1412.803 1340.747 C 1402.549 1332.561, 1395.601 1325.470, 1394.531 1322.097 C 1393.476 1318.773, 1397.779 1310.949, 1402 1308.517 C 1404.726 1306.946, 1407.301 1306.500, 1413.647 1306.500 C 1421.393 1306.500, 1422 1306.665, 1425.963 1309.850 C 1428.256 1311.693, 1430.244 1313.043, 1430.379 1312.850 C 1431.640 1311.058, 1447.544 1289.202, 1448.281 1288.248 C 1448.991 1287.329, 1448.088 1286.488, 1444.874 1285.077 C 1432.901 1279.823, 1408.256 1278.358, 1394 1282.055 M 2192.500 1281.629 C 2178.051 1284.655, 2164.626 1293.076, 2156.345 1304.310 C 2136.461 1331.282, 2127.566 1383.588, 2139.039 1406.077 C 2146.236 1420.183, 2159.916 1426.314, 2184 1426.227 C 2210.657 1426.131, 2227.679 1417.811, 2240.432 1398.646 C 2252.487 1380.528, 2260.148 1353.657, 2260.287 1329 C 2260.445 1301.035, 2250.386 1286.157, 2228.131 1281.440 C 2219.653 1279.643, 2201.524 1279.739, 2192.500 1281.629 M 2288.160 1285.553 C 2281.924 1288.528, 2276.997 1291.308, 2277.213 1291.731 C 2281.666 1300.457, 2283.321 1308.237, 2282.482 1316.500 C 2282.148 1319.800, 2277.627 1344.816, 2272.437 1372.091 C 2267.247 1399.367, 2263 1421.979, 2263 1422.341 C 2263 1422.704, 2271.991 1423, 2282.981 1423 C 2302.883 1423, 2302.964 1422.991, 2303.476 1420.750 C 2303.758 1419.513, 2308.069 1397.125, 2313.055 1371 C 2318.041 1344.875, 2322.348 1322.563, 2322.627 1321.417 C 2323.609 1317.376, 2331.316 1314.682, 2343.250 1314.207 C 2349.162 1313.971, 2354 1313.678, 2354 1313.554 C 2354 1313.431, 2355.347 1306.393, 2356.992 1297.915 C 2358.638 1289.437, 2359.988 1281.886, 2359.992 1281.136 C 2360.002 1279.345, 2353.290 1280.314, 2342.839 1283.612 C 2335.536 1285.918, 2326.069 1291.786, 2321.733 1296.695 C 2319.994 1298.663, 2319.816 1298.543, 2310.799 1289.348 C 2305.757 1284.206, 2301.152 1280.032, 2300.566 1280.072 C 2299.980 1280.111, 2294.397 1282.578, 2288.160 1285.553 M 2405.500 1280.700 C 2399.712 1281.472, 2376.490 1287.242, 2375.500 1288.154 C 2374.541 1289.039, 2368.894 1316.148, 2369.526 1316.834 C 2369.696 1317.017, 2373.809 1315.589, 2378.667 1313.660 C 2390.420 1308.992, 2397.883 1307.676, 2409.692 1308.187 C 2420.916 1308.673, 2425.051 1310.294, 2426.985 1314.964 C 2428.168 1317.819, 2428.005 1327.328, 2426.753 1328.581 C 2426.458 1328.876, 2417.955 1331.588, 2407.858 1334.609 C 2369.216 1346.168, 2354.989 1356.805, 2348.121 1379.273 C 2340.278 1404.931, 2348.797 1422.855, 2370.281 1425.898 C 2377.693 1426.947, 2388.126 1425.945, 2394.938 1423.530 C 2399.448 1421.930, 2407.900 1416.155, 2413.697 1410.712 L 2416.894 1407.710 2422.697 1412.770 C 2425.889 1415.552, 2430.279 1419.667, 2432.453 1421.914 C 2434.627 1424.161, 2436.939 1426, 2437.591 1426 C 2438.779 1426, 2459.802 1417.531, 2460.603 1416.730 C 2460.838 1416.496, 2459.785 1414.098, 2458.265 1411.402 C 2455.666 1406.795, 2455.506 1405.809, 2455.604 1395 C 2455.691 1385.303, 2456.608 1378.953, 2461.452 1354.500 C 2469.561 1313.559, 2469.853 1301.619, 2462.978 1292.128 C 2457.115 1284.035, 2442.664 1279.895, 2421.162 1280.150 C 2414.198 1280.232, 2407.150 1280.480, 2405.500 1280.700 M 1303.545 1284.250 C 1303.329 1284.938, 1297.460 1315.425, 1290.503 1352 C 1283.545 1388.575, 1277.610 1419.522, 1277.313 1420.771 L 1276.773 1423.042 1297.055 1422.771 L 1317.338 1422.500 1330.101 1356 C 1337.121 1319.425, 1343.141 1288.037, 1343.478 1286.250 L 1344.091 1283 1324.014 1283 C 1308.828 1283, 1303.842 1283.305, 1303.545 1284.250 M 1623.570 1307.250 C 1620.999 1320.588, 1614.971 1351.975, 1610.174 1377 L 1601.451 1422.500 1621.371 1422.771 C 1632.327 1422.920, 1641.402 1422.920, 1641.538 1422.771 C 1641.901 1422.372, 1668.011 1285.720, 1668.005 1284.250 C 1668.001 1283.292, 1663.355 1283, 1648.122 1283 L 1628.244 1283 1623.570 1307.250 M 1824 1283.592 C 1824 1283.918, 1819.735 1306.408, 1814.522 1333.569 C 1809.309 1360.730, 1804.752 1387.126, 1804.396 1392.226 C 1803.631 1403.176, 1805.528 1412.382, 1809.670 1417.812 C 1816.516 1426.787, 1837.739 1429.364, 1851.507 1422.892 C 1853.858 1421.787, 1859.598 1417.820, 1864.264 1414.077 L 1872.745 1407.272 1879.974 1415.175 L 1887.204 1423.078 1895.264 1422.789 L 1903.325 1422.500 1916.084 1356 C 1923.102 1319.425, 1929.126 1288.028, 1929.471 1286.229 L 1930.098 1282.958 1909.883 1283.229 L 1889.668 1283.500 1879.419 1336.931 C 1870.118 1385.422, 1868.954 1390.531, 1866.835 1392.175 C 1861.781 1396.098, 1851.138 1397.020, 1847.336 1393.864 C 1844.521 1391.528, 1846.378 1376.888, 1855.420 1330.143 C 1860.139 1305.747, 1864 1285.160, 1864 1284.393 C 1864 1283.249, 1860.431 1283, 1844 1283 C 1833 1283, 1824 1283.267, 1824 1283.592 M 1956 1283.934 C 1956 1284.448, 1950.150 1315.372, 1943 1352.653 C 1935.850 1389.935, 1930 1421.014, 1930 1421.719 C 1930 1422.718, 1934.408 1423, 1950 1423 C 1961 1423, 1970 1422.764, 1970 1422.475 C 1970 1422.186, 1975.850 1391.458, 1983 1354.191 C 1990.150 1316.923, 1996 1285.660, 1996 1284.716 C 1996 1283.152, 1994.230 1283, 1976 1283 C 1964.269 1283, 1956 1283.386, 1956 1283.934 M 2200.914 1307.956 C 2195.930 1309.466, 2192.992 1312.270, 2190.017 1318.359 C 2184.289 1330.079, 2177.305 1362.503, 2176.309 1382 C 2175.784 1392.254, 2175.831 1392.555, 2178.289 1394.834 C 2184.226 1400.336, 2195.540 1399.465, 2201.328 1393.059 C 2205.794 1388.116, 2208.458 1380.865, 2212.556 1362.500 C 2218.758 1334.708, 2220.581 1315.702, 2217.471 1311.261 C 2215.002 1307.738, 2206.943 1306.129, 2200.914 1307.956 M 1212.546 1309.960 C 1204.958 1314.962, 1198.486 1330.164, 1193.369 1355 C 1191.276 1365.159, 1190.577 1371.428, 1190.544 1380.333 C 1190.500 1392.081, 1190.520 1392.183, 1193.306 1394.583 C 1197.282 1398.008, 1203.748 1397.925, 1207.943 1394.395 C 1215.371 1388.144, 1218.585 1378.301, 1226.370 1337.951 C 1231.663 1310.519, 1231.665 1310.499, 1229.583 1309.285 C 1226.172 1307.296, 1215.974 1307.700, 1212.546 1309.960 M 1732.483 1309.393 L 1729.465 1310.708 1723.617 1341.356 C 1720.401 1358.212, 1717.540 1374.862, 1717.259 1378.357 C 1716.369 1389.444, 1719.868 1395.548, 1727.005 1395.361 C 1738.048 1395.072, 1744.625 1383.922, 1750.460 1355.601 C 1756.471 1326.420, 1755.494 1313.679, 1746.904 1309.265 C 1743.778 1307.658, 1736.311 1307.725, 1732.483 1309.393 M 2066.276 1310.099 C 2058.870 1314.842, 2052.614 1329.709, 2047.381 1355 C 2045.272 1365.190, 2044.577 1371.401, 2044.544 1380.333 C 2044.500 1392.081, 2044.520 1392.183, 2047.306 1394.583 C 2049.397 1396.385, 2051.287 1397, 2054.727 1397 C 2058.866 1397, 2059.772 1396.552, 2063.493 1392.669 C 2070.338 1385.524, 2072.929 1376.968, 2080.854 1335.330 L 2085.644 1310.159 2083.275 1309.080 C 2079.200 1307.223, 2069.895 1307.781, 2066.276 1310.099 M 2412.500 1356.373 C 2403.423 1359.334, 2400.195 1361.092, 2396.358 1365.165 C 2391.692 1370.118, 2388.797 1376.663, 2388.248 1383.502 C 2387.810 1388.955, 2388.024 1389.875, 2390.378 1392.672 C 2391.817 1394.382, 2394.137 1396.069, 2395.535 1396.419 C 2401.772 1397.985, 2411.191 1392.467, 2414.988 1385.024 C 2416.389 1382.276, 2422 1357.848, 2422 1354.493 C 2422 1353.588, 2419.558 1354.071, 2412.500 1356.373" stroke="none" fill="#01386f" fill-rule="evenodd"/><path d="M 2524.536 1295.058 C 2524.895 1295.640, 2533.644 1301.693, 2543.976 1308.510 C 2567.254 1323.868, 2574.555 1329.712, 2588.500 1344.149 C 2611.364 1367.821, 2621.114 1387.917, 2621.179 1411.500 C 2621.215 1424.715, 2619.148 1433.074, 2612.525 1446.500 C 2605.963 1459.801, 2599.598 1468.419, 2587.012 1481.036 C 2565.659 1502.442, 2537.297 1521.257, 2496.500 1541.081 C 2463.189 1557.267, 2432.350 1568.801, 2388.362 1581.525 C 2179.459 1641.953, 1899.355 1663.403, 1645 1638.452 C 1571.854 1631.276, 1483.285 1617.868, 1438 1607.113 C 1433.325 1606.003, 1415.775 1601.470, 1399 1597.039 C 1373.869 1590.402, 1338.370 1582, 1335.456 1582 C 1333.647 1582, 1338.013 1585.475, 1345.384 1589.902 C 1390.941 1617.265, 1486.092 1644.200, 1614 1665.941 C 1753.809 1689.705, 1846.643 1696.963, 1994.500 1695.689 C 2059.393 1695.130, 2079.246 1694.512, 2130 1691.473 C 2406.205 1674.931, 2615.759 1617.149, 2702.904 1533.500 C 2729.701 1507.778, 2741.242 1485.314, 2741.137 1459.079 C 2741.045 1435.966, 2730.926 1414.109, 2709.925 1391.663 C 2675.805 1355.195, 2596.703 1311.634, 2537.222 1296.556 C 2526.198 1293.762, 2523.541 1293.448, 2524.536 1295.058" stroke="none" fill="#ec268f" fill-rule="evenodd"/><path d="M 1872.500 0.677 C 1587.925 9.082, 1365.846 56.695, 1250.500 134.031 C 1214.959 157.860, 1192.356 182.081, 1182.876 206.493 C 1174.107 229.077, 1175.300 249.757, 1186.684 272.500 C 1197.418 293.944, 1216.375 314.305, 1245.084 335.222 C 1275.159 357.135, 1324.569 381.854, 1362.500 393.963 C 1374.698 397.858, 1392.699 402.267, 1394.265 401.745 C 1395.338 401.387, 1390.686 398.187, 1368.056 383.711 C 1349.440 371.804, 1326.973 351.719, 1316.054 337.222 C 1309.634 328.699, 1302.861 315.653, 1299.844 306 C 1297.852 299.628, 1297.509 296.470, 1297.560 285 C 1297.614 272.597, 1297.876 270.728, 1300.785 262 C 1314.250 221.599, 1357.523 183.695, 1425 153.199 C 1523.202 108.816, 1650.887 77.702, 1803 61.087 C 1922.872 47.994, 2057.401 44.631, 2185 51.537 C 2313.182 58.474, 2443.037 76.627, 2521.916 98.635 C 2557.497 108.562, 2579.486 113.711, 2582.162 112.740 C 2584.229 111.991, 2548.903 94.921, 2528.706 86.911 C 2452.608 56.730, 2343.974 31.959, 2218 16.065 C 2122.844 4.059, 2048.647 -0.173, 1940 0.207 C 1907.825 0.319, 1877.450 0.531, 1872.500 0.677" stroke="none" fill="#ffcc29" fill-rule="evenodd"/><path d="M 1932.500 106.095 C 1708.297 113.725, 1514.832 159.182, 1428.402 224.537 C 1397.884 247.614, 1382.080 272.845, 1382.017 298.590 C 1381.891 350.154, 1450.254 400.427, 1569.500 436.461 C 1644.614 459.160, 1728.987 474.326, 1834 484.005 C 1877.248 487.991, 1885.507 490.541, 1895.491 502.989 C 1901.718 510.753, 1910.091 517.122, 1921 522.393 L 1929.500 526.500 1950.176 526.268 C 1973.718 526.004, 1976.988 526.648, 1983.320 532.793 C 1991.125 540.368, 2003.329 563.530, 2006.876 577.500 C 2007.993 581.900, 2010.528 596.750, 2012.510 610.500 C 2019.384 658.201, 2024.737 672.243, 2038.493 678.649 C 2044.611 681.498, 2046.242 681.546, 2051.443 679.028 C 2061.941 673.946, 2066.451 658.198, 2069.495 616 C 2072.414 575.526, 2075.518 559.769, 2084.007 542.330 C 2092.005 525.899, 2102.762 515.985, 2112.566 516.010 C 2123.375 516.037, 2136.129 527.144, 2143.998 543.387 C 2151.279 558.414, 2154.788 574.371, 2157 602.500 C 2157.605 610.200, 2158.730 620.550, 2159.500 625.500 C 2162.614 645.531, 2163.147 653.033, 2164.010 689 C 2164.609 713.963, 2165.392 729.007, 2166.351 734 C 2169.544 750.622, 2175.355 760, 2182.464 760 C 2190.019 760, 2196.673 751.846, 2202.222 735.788 C 2205.404 726.579, 2205.432 726.335, 2205.447 707 C 2205.456 696.275, 2205.263 672.875, 2205.020 655 C 2204.611 624.972, 2204.742 621.549, 2206.748 610 C 2214.658 564.461, 2226.639 540.316, 2245.169 532.574 C 2250.396 530.390, 2261.314 528.867, 2266.172 529.644 C 2274.073 530.907, 2277.222 537.444, 2279.003 556.275 C 2282.022 588.189, 2282.603 591.186, 2286.720 596.079 C 2289.157 598.975, 2289.741 599.183, 2294.221 598.753 C 2299.626 598.233, 2305.228 594.459, 2308.251 589.300 C 2311.614 583.562, 2313.908 571.206, 2315.469 550.441 C 2317.873 518.444, 2319.824 513, 2328.887 513 C 2332.842 513, 2336.626 514.781, 2338.389 517.471 C 2339.169 518.661, 2340.748 522.795, 2341.898 526.657 C 2344.794 536.382, 2348.532 539.385, 2352.409 535.101 C 2353.354 534.056, 2356.802 526.069, 2360.071 517.351 C 2372.667 483.758, 2384.679 465.680, 2404.156 451.004 C 2414.725 443.040, 2426.498 437.531, 2449 430.022 C 2498.684 413.442, 2541.076 393.019, 2568.694 372.357 C 2579.054 364.606, 2593.937 350.180, 2599.956 342.054 C 2640.657 287.107, 2603.113 229.388, 2497.203 184.087 C 2367.774 128.725, 2150.255 98.683, 1932.500 106.095" stroke="none" fill="#a8cf45" fill-rule="evenodd"/></svg>