<svg xmlns="http://www.w3.org/2000/svg" width="2742" height="1696" viewBox="0 0 2742 1696" version="1.1"><path d="M 1872.500 0.677 C 1587.925 9.082, 1365.846 56.695, 1250.500 134.031 C 1214.959 157.860, 1192.356 182.081, 1182.876 206.493 C 1174.107 229.077, 1175.300 249.757, 1186.684 272.500 C 1197.418 293.944, 1216.375 314.305, 1245.084 335.222 C 1275.159 357.135, 1324.569 381.854, 1362.500 393.963 C 1374.698 397.858, 1392.699 402.267, 1394.265 401.745 C 1395.338 401.387, 1390.686 398.187, 1368.056 383.711 C 1349.440 371.804, 1326.973 351.719, 1316.054 337.222 C 1309.634 328.699, 1302.861 315.653, 1299.844 306 C 1297.852 299.628, 1297.509 296.470, 1297.560 285 C 1297.614 272.597, 1297.876 270.728, 1300.785 262 C 1314.250 221.599, 1357.523 183.695, 1425 153.199 C 1523.202 108.816, 1650.887 77.702, 1803 61.087 C 1922.872 47.994, 2057.401 44.631, 2185 51.537 C 2313.182 58.474, 2443.037 76.627, 2521.916 98.635 C 2557.497 108.562, 2579.486 113.711, 2582.162 112.740 C 2584.229 111.991, 2548.903 94.921, 2528.706 86.911 C 2452.608 56.730, 2343.974 31.959, 2218 16.065 C 2122.844 4.059, 2048.647 -0.173, 1940 0.207 C 1907.825 0.319, 1877.450 0.531, 1872.500 0.677" stroke="none" fill="#ffcc29" fill-rule="evenodd"/><path d="M 2524.536 1295.058 C 2524.895 1295.640, 2533.644 1301.693, 2543.976 1308.510 C 2567.254 1323.868, 2574.555 1329.712, 2588.500 1344.149 C 2611.364 1367.821, 2621.114 1387.917, 2621.179 1411.500 C 2621.215 1424.715, 2619.148 1433.074, 2612.525 1446.500 C 2605.963 1459.801, 2599.598 1468.419, 2587.012 1481.036 C 2565.659 1502.442, 2537.297 1521.257, 2496.500 1541.081 C 2463.189 1557.267, 2432.350 1568.801, 2388.362 1581.525 C 2179.459 1641.953, 1899.355 1663.403, 1645 1638.452 C 1571.854 1631.276, 1483.285 1617.868, 1438 1607.113 C 1433.325 1606.003, 1415.775 1601.470, 1399 1597.039 C 1373.869 1590.402, 1338.370 1582, 1335.456 1582 C 1333.647 1582, 1338.013 1585.475, 1345.384 1589.902 C 1390.941 1617.265, 1486.092 1644.200, 1614 1665.941 C 1753.809 1689.705, 1846.643 1696.963, 1994.500 1695.689 C 2059.393 1695.130, 2079.246 1694.512, 2130 1691.473 C 2406.205 1674.931, 2615.759 1617.149, 2702.904 1533.500 C 2729.701 1507.778, 2741.242 1485.314, 2741.137 1459.079 C 2741.045 1435.966, 2730.926 1414.109, 2709.925 1391.663 C 2675.805 1355.195, 2596.703 1311.634, 2537.222 1296.556 C 2526.198 1293.762, 2523.541 1293.448, 2524.536 1295.058" stroke="none" fill="#ec268f" fill-rule="evenodd"/><path d="M 1932.500 106.095 C 1708.297 113.725, 1514.832 159.182, 1428.402 224.537 C 1397.884 247.614, 1382.080 272.845, 1382.017 298.590 C 1381.891 350.154, 1450.254 400.427, 1569.500 436.461 C 1644.614 459.160, 1728.987 474.326, 1834 484.005 C 1877.248 487.991, 1885.507 490.541, 1895.491 502.989 C 1901.718 510.753, 1910.091 517.122, 1921 522.393 L 1929.500 526.500 1950.176 526.268 C 1973.718 526.004, 1976.988 526.648, 1983.320 532.793 C 1991.125 540.368, 2003.329 563.530, 2006.876 577.500 C 2007.993 581.900, 2010.528 596.750, 2012.510 610.500 C 2019.384 658.201, 2024.737 672.243, 2038.493 678.649 C 2044.611 681.498, 2046.242 681.546, 2051.443 679.028 C 2061.941 673.946, 2066.451 658.198, 2069.495 616 C 2072.414 575.526, 2075.518 559.769, 2084.007 542.330 C 2092.005 525.899, 2102.762 515.985, 2112.566 516.010 C 2123.375 516.037, 2136.129 527.144, 2143.998 543.387 C 2151.279 558.414, 2154.788 574.371, 2157 602.500 C 2157.605 610.200, 2158.730 620.550, 2159.500 625.500 C 2162.614 645.531, 2163.147 653.033, 2164.010 689 C 2164.609 713.963, 2165.392 729.007, 2166.351 734 C 2169.544 750.622, 2175.355 760, 2182.464 760 C 2190.019 760, 2196.673 751.846, 2202.222 735.788 C 2205.404 726.579, 2205.432 726.335, 2205.447 707 C 2205.456 696.275, 2205.263 672.875, 2205.020 655 C 2204.611 624.972, 2204.742 621.549, 2206.748 610 C 2214.658 564.461, 2226.639 540.316, 2245.169 532.574 C 2250.396 530.390, 2261.314 528.867, 2266.172 529.644 C 2274.073 530.907, 2277.222 537.444, 2279.003 556.275 C 2282.022 588.189, 2282.603 591.186, 2286.720 596.079 C 2289.157 598.975, 2289.741 599.183, 2294.221 598.753 C 2299.626 598.233, 2305.228 594.459, 2308.251 589.300 C 2311.614 583.562, 2313.908 571.206, 2315.469 550.441 C 2317.873 518.444, 2319.824 513, 2328.887 513 C 2332.842 513, 2336.626 514.781, 2338.389 517.471 C 2339.169 518.661, 2340.748 522.795, 2341.898 526.657 C 2344.794 536.382, 2348.532 539.385, 2352.409 535.101 C 2353.354 534.056, 2356.802 526.069, 2360.071 517.351 C 2372.667 483.758, 2384.679 465.680, 2404.156 451.004 C 2414.725 443.040, 2426.498 437.531, 2449 430.022 C 2498.684 413.442, 2541.076 393.019, 2568.694 372.357 C 2579.054 364.606, 2593.937 350.180, 2599.956 342.054 C 2640.657 287.107, 2603.113 229.388, 2497.203 184.087 C 2367.774 128.725, 2150.255 98.683, 1932.500 106.095" stroke="none" fill="#a8cf45" fill-rule="evenodd"/><path d="M 1635.500 525.484 C 1616.243 529.071, 1599.528 538.222, 1584.500 553.408 C 1568.345 569.732, 1559.526 587.577, 1556.863 609.327 C 1552.208 647.357, 1575.955 681.712, 1612.311 689.545 C 1621.961 691.624, 1643.363 691.124, 1652.354 688.609 C 1680.374 680.771, 1704.670 660.312, 1716.588 634.517 C 1722.973 620.696, 1724.507 613.274, 1724.443 596.500 C 1724.391 583.005, 1724.118 580.697, 1721.718 573.500 C 1713.121 547.711, 1691.648 529.393, 1664.935 525.059 C 1656.476 523.687, 1644.199 523.864, 1635.500 525.484 M 2326.946 592.250 C 2326.917 592.388, 2322.059 622.650, 2316.152 659.500 L 2305.412 726.500 2268.023 727 L 2230.634 727.500 2222.892 776 C 2218.634 802.675, 2214.920 825.957, 2214.640 827.738 L 2214.130 830.976 2251.370 831.238 L 2288.610 831.500 2277.821 899 C 2250.438 1070.309, 2250.999 1066.082, 2252.905 1086.680 C 2255.868 1118.716, 2267.225 1140.965, 2287.030 1153.534 C 2302.995 1163.666, 2328.389 1169.888, 2362.631 1172.057 C 2378.252 1173.047, 2384.715 1172.921, 2414 1171.056 C 2432.425 1169.883, 2457.963 1168.645, 2470.750 1168.305 C 2484.611 1167.937, 2494 1167.297, 2494 1166.722 C 2494 1166.190, 2498.499 1137.610, 2503.999 1103.210 C 2509.498 1068.810, 2513.778 1040.444, 2513.509 1040.175 C 2513.240 1039.907, 2503.550 1040.268, 2491.976 1040.978 C 2469.146 1042.379, 2461.427 1041.999, 2451.773 1039.001 C 2439.215 1035.101, 2433.974 1028.629, 2431.859 1014.412 C 2430.219 1003.384, 2431.114 996.296, 2445.353 907.500 L 2457.540 831.500 2502.532 831.240 L 2547.524 830.980 2555.432 781.323 C 2559.782 754.012, 2563.542 730.616, 2563.787 729.333 L 2564.233 727 2519.098 727 L 2473.962 727 2474.494 724.750 C 2474.787 723.513, 2479.522 694.150, 2485.016 659.500 C 2490.510 624.850, 2495.238 595.487, 2495.522 594.250 L 2496.038 592 2411.519 592 C 2365.034 592, 2326.976 592.112, 2326.946 592.250 M 248.500 716.634 C 236.824 717.863, 220.453 720.354, 212.500 722.112 C 162.874 733.082, 119.889 757.084, 81.986 794.986 C 37.137 839.836, 11.678 891.955, 2.358 958 C -0.308 976.889, -0.083 1015.426, 2.783 1031 C 12.456 1083.558, 40.341 1122.876, 86.706 1149.332 C 140.011 1179.749, 222.851 1187.355, 295.500 1168.505 C 368.426 1149.583, 424.207 1108.679, 457.857 1049.448 C 460.686 1044.470, 463 1040.082, 463 1039.698 C 463 1039.314, 427.544 1039, 384.208 1039 L 305.416 1039 300.958 1043.573 C 291.117 1053.668, 275.791 1061.765, 257.074 1066.759 C 248.727 1068.986, 245.386 1069.322, 231 1069.385 C 212.084 1069.467, 204.174 1067.825, 191.548 1061.197 C 170.891 1050.353, 159.030 1026.315, 159.008 995.250 L 159 985 319.941 985 C 408.459 985, 481.093 984.658, 481.352 984.240 C 481.610 983.822, 482.758 975.835, 483.902 966.490 C 494.862 877.018, 480.429 811.364, 440.794 770.394 C 430.063 759.301, 420.884 752.061, 408.599 744.997 C 385.131 731.503, 357.955 723.182, 321.795 718.417 C 310.004 716.863, 258.275 715.605, 248.500 716.634 M 741 716.612 C 671.180 722.725, 609.240 745.786, 577.564 777.462 C 568.394 786.632, 558.409 800.263, 553.048 810.929 C 541.533 833.841, 535.137 867.195, 537.916 889.834 C 542.176 924.544, 561.841 948.504, 602 967.914 C 624.959 979.011, 648.235 985.542, 700.500 995.553 C 753.963 1005.793, 771.235 1011.408, 777.730 1020.661 C 785.101 1031.163, 782.321 1049.057, 771.849 1058.517 C 761.929 1067.480, 744.389 1072.990, 723.500 1073.705 C 700.878 1074.480, 685.491 1069.771, 674.807 1058.802 C 667.280 1051.074, 663.700 1042.754, 663.175 1031.767 L 662.755 1023 582.494 1023 L 502.233 1023 501.623 1025.750 C 501.287 1027.263, 500.724 1034.800, 500.371 1042.500 C 498.737 1078.182, 508.537 1104.917, 531.183 1126.552 C 550.286 1144.804, 583.743 1161.290, 619.500 1170.072 C 668.895 1182.203, 737.274 1181.397, 793.516 1168.021 C 825.685 1160.370, 858.688 1146.754, 881.038 1131.912 C 893.229 1123.817, 912.498 1104.644, 920.146 1093 C 938.201 1065.512, 948.171 1031.884, 948.163 998.500 C 948.157 971.440, 941.934 954.663, 925.373 937.058 C 899.436 909.487, 872.608 898.963, 781.487 880.611 C 737.260 871.704, 725.606 868.839, 718.022 865.011 C 703.460 857.660, 700.254 850.520, 705.089 836.204 C 710.442 820.350, 726.098 811.814, 752.529 810.335 C 773.593 809.156, 785.056 813.016, 796.492 825.138 C 805.127 834.292, 807.977 840.271, 807.990 849.256 L 808 856.012 884.750 855.756 L 961.500 855.500 962.177 850.500 C 963.539 840.438, 963.139 816.764, 961.459 808 C 957.005 784.764, 943.549 764.780, 923.617 751.801 C 906.223 740.475, 877.609 729.522, 849.733 723.519 C 826.078 718.425, 809.941 716.888, 776.500 716.540 C 759.450 716.363, 743.475 716.396, 741 716.612 M 1291.500 717.175 C 1277.909 718.544, 1260.561 722.338, 1250.500 726.144 C 1234.619 732.152, 1214.275 745.807, 1194.500 763.732 C 1189 768.717, 1184.413 772.718, 1184.307 772.622 C 1184.200 772.525, 1185.654 763.009, 1187.537 751.473 C 1189.420 739.938, 1190.969 729.712, 1190.980 728.750 C 1190.999 727.098, 1186.470 727, 1109.717 727 L 1028.433 727 972.680 1074.250 C 942.016 1265.238, 916.944 1422.065, 916.964 1422.756 C 916.993 1423.755, 934.192 1423.959, 1001.243 1423.756 L 1085.487 1423.500 1109.596 1279.500 C 1122.857 1200.300, 1134.270 1132.198, 1134.958 1128.163 L 1136.210 1120.826 1139.855 1126.865 C 1156.007 1153.627, 1183.184 1170.815, 1218.500 1176.601 C 1233.133 1178.998, 1263.339 1178.978, 1281.500 1176.559 C 1314.943 1172.103, 1345.964 1160.144, 1369.965 1142.453 C 1373.521 1139.831, 1380.887 1133.370, 1386.333 1128.093 C 1415.854 1099.492, 1441.839 1055.343, 1457.311 1007.500 C 1470.227 967.563, 1475.705 930.955, 1474.722 891.161 C 1473.985 861.308, 1470.906 843.527, 1461.959 817.440 C 1443.678 764.138, 1412.397 732.523, 1366.507 720.969 C 1360.453 719.444, 1351.450 717.704, 1346.500 717.101 C 1336.009 715.824, 1304.502 715.867, 1291.500 717.175 M 2027.775 725.478 C 1982.145 731.955, 1948.510 748.129, 1916.750 778.866 C 1911.388 784.056, 1907.014 787.672, 1907.032 786.901 C 1907.050 786.130, 1909.209 772.450, 1911.830 756.500 L 1916.596 727.500 1836.137 727.244 C 1791.885 727.103, 1755.448 727.218, 1755.167 727.500 C 1754.552 728.115, 1683.027 1162.531, 1683.011 1165.750 L 1683 1168 1766.421 1168 L 1849.841 1168 1850.423 1165.250 C 1850.743 1163.737, 1859.532 1110.750, 1869.954 1047.500 C 1880.376 984.250, 1889.211 931.014, 1889.587 929.197 C 1890.257 925.962, 1890.211 925.908, 1887.386 926.589 C 1874.065 929.796, 1852.366 941.308, 1837.068 953.284 C 1831.858 957.363, 1831.031 957.767, 1832.714 955.410 C 1837.762 948.339, 1855.525 928.327, 1868.437 915.162 C 1910.117 872.667, 1943.517 855.126, 1975.556 858.905 C 2000.787 861.881, 2009.387 872.062, 2010.691 900.500 C 2011.448 917.008, 2010.769 921.798, 1989.096 1053 C 1978.784 1115.425, 1970.382 1166.565, 1970.424 1166.644 C 1970.700 1167.163, 2136.964 1167.369, 2137.483 1166.850 C 2137.840 1166.493, 2143.703 1132.518, 2150.513 1091.350 C 2157.322 1050.183, 2168.843 980.950, 2176.115 937.500 L 2189.337 858.500 2189.396 840.500 C 2189.460 821.200, 2188.301 813.117, 2183.409 798.733 C 2170.805 761.675, 2140.286 736.537, 2096.199 726.900 C 2083.586 724.143, 2043.106 723.301, 2027.775 725.478 M 1545.576 734.250 C 1541.108 762.177, 1479 1165.448, 1479 1166.528 C 1479 1167.812, 1489.657 1168, 1562.481 1168 L 1645.962 1168 1646.461 1165.750 C 1646.735 1164.513, 1661.821 1066.975, 1679.985 949 C 1698.148 831.025, 1713.241 733.487, 1713.524 732.250 L 1714.038 730 1630.147 730 L 1546.256 730 1545.576 734.250 M 259.258 825.017 C 228.409 828.199, 205.392 841.604, 189.304 865.759 C 184.057 873.637, 176.892 888.379, 175.456 894.250 L 174.783 897 253.873 897 L 332.962 897 333.609 894.423 C 334.824 889.580, 333.307 871.754, 331.086 864.794 C 328.465 856.577, 320.522 844.462, 314.203 839.040 C 300.771 827.518, 281.842 822.687, 259.258 825.017 M 1229.022 840.497 C 1208.578 845.137, 1195.411 854.101, 1184.016 871.138 C 1173.735 886.507, 1166.280 903.939, 1160.998 924.954 C 1147.987 976.724, 1151.312 1023.154, 1169.319 1041.161 C 1179.271 1051.113, 1192.144 1055.310, 1212.500 1055.239 C 1232.310 1055.169, 1246.436 1050.549, 1260.094 1039.671 C 1275.119 1027.705, 1291.150 997.590, 1298.477 967.568 C 1304.374 943.408, 1307.072 914.105, 1305.087 895.796 C 1301.574 863.409, 1291.623 848.438, 1269 841.505 C 1261.232 839.125, 1237.685 838.531, 1229.022 840.497 M 1310.676 1246.250 C 1309.194 1254.088, 1307.986 1260.847, 1307.991 1261.271 C 1307.996 1261.695, 1317.090 1261.920, 1328.201 1261.771 L 1348.401 1261.500 1351.137 1247.500 C 1352.641 1239.800, 1353.901 1233.162, 1353.936 1232.750 C 1353.971 1232.338, 1344.858 1232, 1333.685 1232 L 1313.371 1232 1310.676 1246.250 M 1637.613 1233.750 C 1637.327 1234.713, 1636.140 1240.675, 1634.977 1247 C 1633.814 1253.325, 1632.638 1259.287, 1632.364 1260.250 C 1631.901 1261.876, 1633.315 1262, 1652.306 1262 L 1672.747 1262 1675.373 1248.114 C 1676.818 1240.477, 1678 1233.727, 1678 1233.114 C 1678 1232.333, 1672.050 1232, 1658.067 1232 C 1639.949 1232, 1638.087 1232.159, 1637.613 1233.750 M 1965.964 1232.250 C 1965.944 1232.388, 1964.673 1239.025, 1963.139 1247 L 1960.351 1261.500 1980.321 1261.771 C 1991.304 1261.920, 2000.432 1261.902, 2000.604 1261.730 C 2001.077 1261.256, 2005.992 1235.756, 2005.996 1233.750 C 2006 1232.142, 2004.382 1232, 1986 1232 C 1975 1232, 1965.984 1232.112, 1965.964 1232.250 M 1245.165 1238.750 C 1244.562 1241.912, 1242.429 1253.125, 1240.425 1263.667 L 1236.780 1282.834 1232.764 1281.417 C 1227.323 1279.497, 1211.384 1279.589, 1203.644 1281.584 C 1178.647 1288.029, 1161.306 1309.552, 1152.118 1345.537 C 1146.748 1366.570, 1145.013 1392.965, 1148.319 1403.347 C 1153.256 1418.851, 1167.826 1427.731, 1186.835 1426.822 C 1197.765 1426.300, 1202.414 1424.168, 1212.012 1415.282 L 1219.131 1408.692 1224.815 1414.107 C 1227.942 1417.085, 1232.395 1421.278, 1234.710 1423.425 L 1238.921 1427.329 1251.355 1422.061 L 1263.789 1416.794 1260.686 1411.802 C 1256.748 1405.467, 1256.157 1398.213, 1258.411 1383.868 C 1259.772 1375.207, 1284.922 1242.250, 1286.523 1235.250 L 1287.038 1233 1266.649 1233 L 1246.260 1233 1245.165 1238.750 M 1703.512 1235.250 C 1702.243 1240.670, 1668 1420.387, 1668 1421.624 C 1668 1422.678, 1669.885 1423, 1676.064 1423 L 1684.127 1423 1694.135 1415.904 C 1699.639 1412.002, 1704.281 1408.964, 1704.451 1409.154 C 1704.621 1409.345, 1705.916 1411.804, 1707.331 1414.620 C 1712.227 1424.370, 1716.979 1426.590, 1732.500 1426.376 C 1754.677 1426.070, 1769.872 1415.113, 1782.248 1390.500 C 1787.100 1380.851, 1791.539 1367.146, 1794.670 1352.150 C 1798.134 1335.557, 1798.555 1314.544, 1795.595 1306 C 1791.207 1293.335, 1782.857 1285.352, 1770.068 1281.595 C 1762.248 1279.298, 1748.411 1279.487, 1741.296 1281.987 C 1738.186 1283.080, 1735.477 1283.810, 1735.276 1283.609 C 1735.075 1283.408, 1736.956 1272.590, 1739.455 1259.569 C 1741.955 1246.548, 1744 1235.244, 1744 1234.447 C 1744 1233.232, 1740.791 1233, 1724.019 1233 C 1704.121 1233, 1704.036 1233.009, 1703.512 1235.250 M 2098.682 1241.250 C 2097.837 1245.787, 2095.712 1256.978, 2093.960 1266.118 L 2090.774 1282.736 2086.228 1281.368 C 2080.104 1279.525, 2065.194 1279.638, 2057.644 1281.584 C 2032.647 1288.029, 2015.306 1309.552, 2006.118 1345.537 C 2000.693 1366.787, 1998.963 1392.984, 2002.301 1403.347 C 2007.306 1418.882, 2021.831 1427.731, 2040.835 1426.822 C 2051.765 1426.300, 2056.414 1424.168, 2066.015 1415.280 L 2073.137 1408.686 2080.318 1415.622 C 2084.268 1419.436, 2088.729 1423.627, 2090.230 1424.934 L 2092.961 1427.312 2105.375 1422.053 L 2117.789 1416.794 2114.704 1411.830 C 2110.973 1405.829, 2110.212 1398.940, 2111.935 1386.774 C 2112.903 1379.936, 2138.820 1242.532, 2140.514 1235.250 L 2141.038 1233 2120.628 1233 L 2100.218 1233 2098.682 1241.250 M 1495.363 1251.232 L 1475.226 1256.241 1473.530 1264.871 C 1472.598 1269.617, 1471.385 1275.638, 1470.835 1278.250 L 1469.834 1283 1461.667 1283.001 L 1453.500 1283.002 1451.114 1295.751 C 1449.802 1302.763, 1448.517 1309.063, 1448.257 1309.750 C 1447.904 1310.688, 1449.885 1311, 1456.207 1311 L 1464.628 1311 1458.856 1341.250 C 1448.971 1393.056, 1449 1394.724, 1460.191 1417.103 C 1464.013 1424.746, 1467.703 1431, 1468.391 1431 C 1470.958 1431, 1495.494 1418.920, 1495.336 1417.734 C 1495.245 1417.055, 1494.145 1413.800, 1492.891 1410.500 C 1489.290 1401.029, 1489.870 1391.525, 1496 1359.500 C 1498.842 1344.650, 1502.083 1327.662, 1503.200 1321.750 L 1505.232 1311 1515.049 1311 C 1526.197 1311, 1525.082 1311.996, 1527.084 1300.250 C 1527.764 1296.263, 1528.630 1293, 1529.008 1293 C 1530.239 1293, 1533.037 1300.367, 1533.945 1306 C 1535.191 1313.735, 1534.155 1320.777, 1523.954 1373.925 C 1519.037 1399.541, 1515.011 1421.063, 1515.007 1421.750 C 1515.002 1422.709, 1519.659 1423, 1534.981 1423 C 1554.871 1423, 1554.964 1422.990, 1555.515 1420.750 C 1555.820 1419.513, 1560.296 1396.458, 1565.462 1369.518 C 1573.644 1326.849, 1575.135 1320.309, 1577.027 1318.777 C 1580.574 1315.905, 1588.810 1314, 1597.682 1314 C 1602.257 1314, 1606.002 1313.888, 1606.004 1313.750 C 1606.006 1313.612, 1607.347 1306.750, 1608.984 1298.500 C 1610.620 1290.250, 1611.969 1282.713, 1611.980 1281.750 C 1612.006 1279.453, 1609.752 1279.510, 1599.765 1282.060 C 1589.438 1284.697, 1582.989 1287.995, 1576.753 1293.828 L 1571.772 1298.487 1562.916 1289.243 C 1558.045 1284.160, 1553.584 1280, 1553.002 1280 C 1552.421 1280, 1547.020 1282.250, 1541 1285 C 1534.980 1287.750, 1529.846 1290, 1529.591 1290 C 1529.335 1290, 1529.381 1288.425, 1529.694 1286.500 L 1530.262 1283 1520.631 1283 C 1514.709 1283, 1511 1282.605, 1511 1281.973 C 1511 1281.086, 1516.340 1252.638, 1517.425 1247.750 C 1517.918 1245.524, 1519 1245.353, 1495.363 1251.232 M 1393.373 1281.921 C 1367.497 1288.914, 1354.114 1306.079, 1355.199 1330.887 C 1355.839 1345.535, 1359.676 1351.559, 1375.093 1362.118 C 1392.869 1374.293, 1396.745 1382.526, 1388.904 1391.456 C 1384.518 1396.452, 1378.272 1398.512, 1367.737 1398.438 C 1359.482 1398.380, 1358.502 1398.135, 1350.806 1394.203 C 1346.313 1391.908, 1342.436 1390.231, 1342.190 1390.477 C 1341.135 1391.532, 1336.271 1419.580, 1337.008 1420.360 C 1337.455 1420.834, 1342.024 1422.350, 1347.160 1423.730 C 1359.074 1426.930, 1379.457 1427.371, 1390.400 1424.665 C 1409.697 1419.894, 1424.200 1407.803, 1430.183 1391.500 C 1431.882 1386.868, 1432.398 1383.216, 1432.442 1375.482 C 1432.496 1366.158, 1432.277 1365.011, 1429.273 1358.907 C 1425.885 1352.020, 1420.519 1346.383, 1407.329 1335.848 C 1398.606 1328.882, 1394.670 1323.903, 1394.782 1319.976 C 1395.138 1307.458, 1416.030 1301.423, 1427.015 1310.666 C 1428.757 1312.131, 1430.473 1312.889, 1430.923 1312.390 C 1433.302 1309.751, 1449 1287.641, 1449 1286.928 C 1449 1286.466, 1445.287 1284.876, 1440.750 1283.396 C 1433.491 1281.028, 1430.579 1280.662, 1416.500 1280.350 C 1403.068 1280.052, 1399.356 1280.304, 1393.373 1281.921 M 2194.069 1281.088 C 2175.131 1284.803, 2161.101 1294.831, 2151.044 1311.841 C 2140.570 1329.557, 2134.012 1355.418, 2134.004 1379.040 C 2133.995 1406.032, 2142.479 1418.914, 2164.047 1424.655 C 2173.507 1427.173, 2194.908 1426.928, 2205.144 1424.185 C 2224.311 1419.048, 2236.762 1408.312, 2246.920 1388.165 C 2254.875 1372.388, 2260.277 1348.590, 2260.349 1329 C 2260.456 1299.838, 2250.353 1285.429, 2226.647 1280.933 C 2220.652 1279.796, 2200.159 1279.894, 2194.069 1281.088 M 2288.500 1285.174 C 2282.450 1287.941, 2277.311 1290.385, 2277.080 1290.605 C 2276.850 1290.826, 2277.643 1293.142, 2278.844 1295.753 C 2282.099 1302.833, 2283.057 1309.739, 2282.027 1318.691 C 2281.532 1322.986, 2277.049 1347.697, 2272.064 1373.604 C 2267.079 1399.511, 2263 1421.232, 2263 1421.874 C 2263 1422.734, 2268.308 1422.970, 2283.159 1422.771 L 2303.319 1422.500 2313.096 1371.510 C 2321.607 1327.130, 2323.154 1320.294, 2325.036 1318.769 C 2328.572 1315.906, 2336.816 1314, 2345.662 1314 C 2353.459 1314, 2353.991 1313.864, 2354.445 1311.750 C 2356.494 1302.213, 2360 1283.336, 2360 1281.840 C 2360 1279.444, 2357.860 1279.482, 2347.765 1282.060 C 2337.437 1284.697, 2330.991 1287.994, 2324.742 1293.834 L 2319.751 1298.500 2310.977 1289.250 C 2306.152 1284.162, 2301.595 1280.032, 2300.852 1280.072 C 2300.108 1280.111, 2294.550 1282.407, 2288.500 1285.174 M 2404.500 1280.700 C 2399.884 1281.315, 2376.640 1286.974, 2375.406 1287.783 C 2374.578 1288.326, 2369 1314.088, 2369 1317.373 C 2369 1317.704, 2371.366 1316.928, 2374.258 1315.649 C 2388.088 1309.533, 2392.772 1308.500, 2406.677 1308.500 C 2418.475 1308.500, 2420.149 1308.719, 2422.677 1310.590 C 2426.955 1313.757, 2428.313 1317.339, 2427.550 1323.445 L 2426.895 1328.690 2409.197 1334.014 C 2372.288 1345.117, 2359.731 1353.045, 2351.352 1370.535 C 2345.095 1383.596, 2343.351 1400.723, 2347.312 1410.203 C 2351.804 1420.956, 2361.532 1426.241, 2377 1426.334 C 2391.917 1426.425, 2399.840 1423.243, 2412.060 1412.256 L 2417.146 1407.683 2426.850 1417.351 L 2436.555 1427.019 2449.229 1421.914 L 2461.903 1416.810 2459.510 1413.155 C 2453.337 1403.728, 2453.619 1396.200, 2461.686 1355 C 2466.892 1328.411, 2467.464 1324.217, 2467.481 1312.500 C 2467.498 1301.076, 2467.239 1299.015, 2465.347 1295.500 C 2459.359 1284.373, 2446.455 1279.876, 2421.292 1280.150 C 2413.706 1280.232, 2406.150 1280.480, 2404.500 1280.700 M 1303.500 1284.250 C 1303.044 1285.551, 1277 1421.317, 1277 1422.390 C 1277 1422.725, 1286.112 1422.997, 1297.250 1422.994 L 1317.500 1422.988 1330.342 1355.744 C 1337.405 1318.760, 1343.420 1287.263, 1343.708 1285.750 L 1344.233 1283 1324.085 1283 C 1308.867 1283, 1303.830 1283.306, 1303.500 1284.250 M 1627.674 1285.250 C 1627.375 1286.487, 1621.458 1317.200, 1614.525 1353.500 C 1607.592 1389.800, 1601.682 1420.287, 1601.392 1421.250 C 1600.902 1422.877, 1602.311 1423, 1621.433 1423 C 1632.745 1423, 1642 1422.799, 1642 1422.553 C 1642 1422.307, 1647.850 1391.597, 1655 1354.308 C 1662.150 1317.019, 1668 1285.720, 1668 1284.755 C 1668 1283.140, 1666.408 1283, 1648.108 1283 C 1628.308 1283, 1628.214 1283.010, 1627.674 1285.250 M 1823.679 1285.250 C 1823.383 1286.487, 1818.979 1309.100, 1813.891 1335.500 C 1805.532 1378.883, 1804.635 1384.654, 1804.571 1395.500 C 1804.492 1408.870, 1805.555 1413.284, 1810.099 1418.459 C 1818.045 1427.510, 1838.372 1429.441, 1852.591 1422.496 C 1855.390 1421.128, 1860.990 1417.231, 1865.034 1413.835 L 1872.387 1407.661 1879.661 1415.372 L 1886.934 1423.082 1895.211 1422.791 L 1903.487 1422.500 1916.682 1354 C 1923.940 1316.325, 1929.905 1284.938, 1929.939 1284.250 C 1929.986 1283.289, 1925.319 1283.001, 1909.750 1283.006 L 1889.500 1283.011 1879.611 1335.256 C 1874.172 1363.990, 1869.105 1388.503, 1868.352 1389.729 C 1865.499 1394.369, 1855.446 1397.256, 1849.999 1394.999 C 1846.282 1393.460, 1845.544 1390.884, 1846.311 1382.141 C 1846.759 1377.042, 1862.260 1293.533, 1864.389 1284.750 C 1864.782 1283.127, 1863.341 1283, 1844.515 1283 C 1824.291 1283, 1824.215 1283.008, 1823.679 1285.250 M 1951.553 1307.250 C 1948.984 1320.588, 1942.957 1351.975, 1938.160 1377 L 1929.438 1422.500 1949.364 1422.771 C 1960.324 1422.920, 1969.476 1422.858, 1969.701 1422.632 C 1969.927 1422.406, 1975.923 1391.909, 1983.026 1354.861 C 1990.129 1317.812, 1996.187 1286.487, 1996.489 1285.250 L 1997.038 1283 1976.631 1283 L 1956.224 1283 1951.553 1307.250 M 2200.637 1308.465 C 2195.116 1310.433, 2191.462 1314.375, 2188.660 1321.388 C 2183.580 1334.099, 2177.317 1364.886, 2176.291 1382.185 L 2175.716 1391.870 2178.781 1394.935 C 2181.556 1397.710, 2182.444 1398, 2188.173 1397.996 C 2198.943 1397.990, 2203.691 1393.387, 2208.338 1378.448 C 2213.211 1362.780, 2219 1330.916, 2219 1319.757 C 2219 1313.101, 2216.636 1309.549, 2211.205 1308.040 C 2206.502 1306.734, 2205.364 1306.780, 2200.637 1308.465 M 1213.366 1309.861 C 1204.928 1315.162, 1198.712 1329.504, 1193.429 1355.862 C 1189.992 1373.007, 1189.163 1387.480, 1191.372 1391.753 C 1193.326 1395.531, 1195.737 1397, 1199.984 1397 C 1207.731 1397, 1213.173 1390.477, 1217.916 1375.504 C 1222.211 1361.948, 1231.661 1311.261, 1230.172 1309.772 C 1229.524 1309.124, 1226.183 1308.436, 1222.747 1308.243 C 1217.835 1307.967, 1215.830 1308.312, 1213.366 1309.861 M 1732.476 1309.852 C 1729.466 1311.687, 1729.426 1311.834, 1723.731 1341.598 C 1716.595 1378.898, 1716.182 1382.569, 1718.446 1388.498 C 1720.378 1393.557, 1722.320 1395.002, 1727.184 1394.996 C 1731.361 1394.992, 1735.974 1392.212, 1739.519 1387.564 C 1745.605 1379.585, 1752.811 1350.478, 1753.647 1330.500 C 1754.086 1319.984, 1753.912 1318.067, 1752.239 1315 C 1748.703 1308.516, 1738.867 1305.954, 1732.476 1309.852 M 2068.500 1309.107 C 2064.411 1311.480, 2060.732 1315.656, 2058.023 1321 C 2048.849 1339.098, 2040.960 1383.220, 2045.372 1391.753 C 2049.877 1400.464, 2061.366 1398.151, 2067.179 1387.364 C 2071.441 1379.454, 2074.434 1368.137, 2080.042 1338.719 C 2084.091 1317.480, 2085.063 1310.663, 2084.166 1309.766 C 2082.556 1308.156, 2070.979 1307.669, 2068.500 1309.107 M 2412.256 1356.547 C 2399.474 1360.819, 2393.804 1365.746, 2389.926 1375.952 C 2383.794 1392.091, 2393.718 1401.632, 2407.710 1393.047 C 2413.453 1389.524, 2415.849 1384.462, 2419.051 1369.087 C 2420.673 1361.299, 2422 1354.718, 2422 1354.463 C 2422 1353.591, 2419.495 1354.127, 2412.256 1356.547" stroke="none" fill="#fcfcfc" fill-rule="evenodd"/></svg>